<svg xmlns="http://www.w3.org/2000/svg" width="1em" height="1em" viewBox="0 0 24 24"><g fill="none"><path fill="currentColor" d="m15 14l-.493.082A.5.5 0 0 1 15 13.5zM4 14v.5a.5.5 0 0 1-.5-.5zm16.522-2.392l.49-.098zM6 3.5h11.36v1H6zm12.56 11H15v-1h3.56zm-3.067-.582l.806 4.835l-.986.165l-.806-4.836zM14.82 20.5h-.213v-1h.213zm-3.126-1.558l-2.515-3.774l.832-.555l2.515 3.774zM7.93 14.5H4v-1h3.93zM3.5 14V6h1v8zm16.312-8.49l1.2 6l-.98.196l-1.2-6zM9.178 15.168A1.5 1.5 0 0 0 7.93 14.5v-1a2.5 2.5 0 0 1 2.08 1.113zm7.121 3.585a1.5 1.5 0 0 1-1.48 1.747v-1a.5.5 0 0 0 .494-.582zM18.56 13.5a1.5 1.5 0 0 0 1.471-1.794l.98-.196a2.5 2.5 0 0 1-2.45 2.99zm-1.2-10a2.5 2.5 0 0 1 2.452 2.01l-.98.196A1.5 1.5 0 0 0 17.36 4.5zm-2.754 17a3.5 3.5 0 0 1-2.913-1.558l.832-.555a2.5 2.5 0 0 0 2.08 1.113zM6 4.5A1.5 1.5 0 0 0 4.5 6h-1A2.5 2.5 0 0 1 6 3.5z"/><path stroke="currentColor" d="M8 14V4"/></g></svg>