<svg xmlns="http://www.w3.org/2000/svg" width="1em" height="1em" viewBox="0 0 24 24"><g fill="none"><path fill="currentColor" d="m15 10l-.493-.082A.5.5 0 0 0 15 10.5zM4 10v-.5a.5.5 0 0 0-.5.5zm16.522 2.392l.49.098zM6 20.5h11.36v-1H6zm12.56-11H15v1h3.56zm-3.067.582l.806-4.835l-.986-.165l-.806 4.836zM14.82 3.5h-.213v1h.213zm-3.126 1.559L9.178 8.832l.832.555l2.515-3.774zM7.93 9.5H4v1h3.93zM3.5 10v8h1v-8zm16.312 8.49l1.2-6l-.98-.196l-1.2 6zM9.178 8.832A1.5 1.5 0 0 1 7.93 9.5v1a2.5 2.5 0 0 0 2.08-1.113zm7.121-3.585A1.5 1.5 0 0 0 14.82 3.5v1a.5.5 0 0 1 .494.582zM18.56 10.5a1.5 1.5 0 0 1 1.471 1.794l.98.196a2.5 2.5 0 0 0-2.45-2.99zm-1.2 10a2.5 2.5 0 0 0 2.452-2.01l-.98-.196A1.5 1.5 0 0 1 17.36 19.5zm-2.754-17a3.5 3.5 0 0 0-2.913 1.559l.832.554a2.5 2.5 0 0 1 2.08-1.113zM6 19.5A1.5 1.5 0 0 1 4.5 18h-1A2.5 2.5 0 0 0 6 20.5z"/><path stroke="currentColor" d="M8 10v10"/></g></svg>